.
 
http://www.scenetime.com    -   SceneTime [ We been having it ] !!!


How come you press harder on a remote control when you know the battery is dead? so you better seed to get speed ;)

        Seed back for speed


...................................NFO:.................................................[color=blue][b]DEAD-HOOKER-IN-A-TRUNK-DvDRiP-SCR0N.avi[/b][/color]
     [color=red] Format : AVI
      Format/Info : Audio Video Interleave
      File size : 901 MiB
      Duration : 1h 25mn
      Overall bit rate : 1 477 Kbps
   Video #0
      ID : 0
      Format : MPEG-4 Visual
      Format profile : AdvancedSimple@L5
      Format settings, BVOP : Yes
      Format settings, QPel : No
      Format settings, GMC : No warppoints
      Format settings, Matrix : Default (H.263)
      Codec ID : XVID
      Codec ID/Hint : XviD
      Duration : 1h 25mn
      Bit rate : 1 277 Kbps
      Width : 720 pixels
      Height : 304 pixels
      Display aspect ratio : 2.35:1
      Frame rate : 25.000 fps
      Resolution : 24 bits
      Colorimetry : 4:2:0
      Scan type : Progressive
      Bits/(Pixel*Frame) : 0.233
      Stream size : 779 MiB (86%)
     
   Audio #1
      ID : 1
      Format : AC-3
      Format/Info : Audio Coding 3
      Codec ID : 2000
      Duration : 1h 25mn
      Bit rate mode : Constant
      Bit rate : 192 Kbps
      Channel(s) : 2 channels
      Channel positions : L R
      Sampling rate : 48.0 KHz
      Stream size : 117 MiB (13%)
      Alignment : Aligned on interleaves
      Interleave, duration : 64 ms (1.60 video frames)

    imdb:
      http://www.imdb.com/title/tt1508661/

    Screens:
[IMG]http://img861.imageshack.us/img861/2541/vlcsnap2011061409h54m43.png[/IMG]
[IMG]http://img840.imageshack.us/img840/6769/vlcsnap2011061409h55m57.png[/IMG]
[IMG]http://img9.imageshack.us/img9/7958/vlcsnap2011061409h54m52.png[/IMG]
[IMG]http://img40.imageshack.us/img40/3598/vlcsnap2011061409h56m13.png[/IMG]
[IMG]http://img535.imageshack.us/img535/6264/vlcsnap2011061409h55m48.png[/IMG]



    other blarn:
      Magic 
      Big Thanks  to  My wife..  AG.. for  lettin me  sit and  do this LoVe from NiNe
[/color]